<?xml version="1.0" encoding="utf-8"?>
<!-- Generator: Adobe Illustrator 24.0.1, SVG Export Plug-In . SVG Version: 6.00 Build 0)  -->
<svg version="1.1" id="Capa_1" xmlns="http://www.w3.org/2000/svg" xmlns:xlink="http://www.w3.org/1999/xlink" x="0px" y="0px"
	 viewBox="0 0 392 418" style="enable-background:new 0 0 392 418;" xml:space="preserve">
<style type="text/css">
	.st0{fill:#FFFFFF;}
	.st1{fill:#1D1D1B;}
</style>
<g>
	<path class="st0" d="M305.45,241.12c14.02-3.14,28.79-6.51,43.61-9.71c2.23-0.48,4.65-0.24,6.98-0.15
		c5.73,0.23,10.09,2.82,11.94,8.35c2.01,5.98-0.39,11.11-5.37,14.15c-5.67,3.47-11.91,6.11-18.12,8.58
		c-12.87,5.13-24.31,11.59-28.16,25.5c7.66,1.79,15.22,3.09,22.48,5.39c6.18,1.96,10.05,6.63,9.61,13.52
		c-0.44,6.92-5.38,9.34-11.45,10.73c-6.73,1.54-13.34,3.61-20.66,5.63c2.16,3.13,3.94,5.05,4.96,7.31
		c3.4,7.57-2.13,15.53-11.14,16.38c-6.7,0.63-13.42,1.18-20.09,2.1c-8.62,1.2-14.91,5.29-19.8,13.13
		c-3.01,4.83-8.91,8.77-14.38,10.9c-4.82,1.88-7.8,4.35-11.21,8.08c-4.46,4.88-10.93,7.95-16.64,11.63
		c-2.1,1.35-4.42,2.57-6.81,3.24c-11.28,3.18-22.55,6.44-33.97,9.07c-4.77,1.1-9.94,1.25-14.83,0.82
		c-5.72-0.5-12.37-0.62-16.74-3.62c-5.36-3.69-10.39-4.58-15.92-3.25c-5.76,1.38-10.16,0.11-13.98-4.11
		c-0.35-0.38-0.63-1.2-0.92-1.2c-11.21,0.21-17.89-8.07-25.98-13.73c-1.24-0.87-3.19-0.88-4.18-1.9
		c-7.63-7.92-15.19-15.91-22.58-24.05c-4.38-4.82-9.73-9.37-12.31-15.09c-5.75-12.76-10.42-26.05-14.77-39.37
		c-3-9.19-0.9-18.48,5.13-25.72c5.2-6.24,8.31-12.92,11.24-20.36c2.91-7.4,8.86-13.6,13.44-20.35c1.57-2.31,3.02-4.7,4.78-7.43
		c-11.31-4.19-20.17-10.41-21.71-23.64c-12.17,0.38-22.09-3.31-29.28-13.34C20,176.53,22,161.55,33.52,152.06
		c1.35-1.11,1.78-5.63,0.68-7.04c-8.21-10.56-7.65-17.73,2.54-25.77c1.55-1.22,2.52-3.17,4.01-4.51c3.13-2.82,6.03-6.31,9.72-8.01
		c7.97-3.67,16.38-6.38,24.2-9.32c0.14-14.88,7.63-23.69,18.41-30.5c7.01-4.43,14.71-7.55,19.18-15.8c1.79-3.3,8.47-3.95,14.39-6.42
		c0.82-3.8,2.57-9.96,3.39-16.25c1.24-9.47,7.98-12.28,15.73-13.39c6.62-0.95,11.3,2.68,14.35,8.51c0.67,1.28,1.79,2.34,3.13,4.03
		c1.14-3.33,1.27-6.86,3.05-8.25c4.06-3.15,8.85-7.09,13.51-7.33c6.37-0.32,13.26,2.96,15.24,9.91c2.31,8.1,3,16.66,4.34,25.03
		c0.27,1.72,0.27,3.47,0.47,6.19c6.09-1.17,11.59-2.27,17.1-3.28c6.74-1.24,13.31-2.32,18.42,4.31c1.06,1.37,3.98,1.7,6.08,1.81
		c6.79,0.35,12.81,1.97,16.72,8.17c0.66,1.04,1.8,2.53,2.72,2.53c11.14,0,18.85,7.52,25.94,13.93c7.83,7.07,19.24,12.27,18.94,26.37
		c-0.09,4.02,5.12,9.11,9.11,12.05c8.59,6.32,13.82,19.29,11.33,30.42c-0.62,2.76,0.25,5.83,0.25,8.76
		c-0.01,5.71-0.12,11.42-0.28,17.12c-0.02,0.72-0.91,1.53-0.76,2.14c2.89,12.01,0.27,21.87-9.2,30.6c-3.16,2.91-2.86,9.46-4.4,14.27
		C309.66,229.19,307.23,235.95,305.45,241.12z M234.76,127.04c4.46-2.85,8.92-5.71,13.38-8.56c-0.46-0.67-0.92-1.35-1.37-2.02
		c-6.01,1.42-12.03,2.84-18.83,4.45c2.79,2.52,4.93,4.44,7.05,6.36c-3.1-1.49-6.1-3.35-9.35-4.35c-1.82-0.56-6.1-3.47-5.02,2.59
		c-2.87,1.35-8.04-5.68-9,0.81c-17.75,4.32-37.95,0.88-47.6,22.26c2.67,1.31,6.27,3,9.78,4.85c4.53,2.39,8.36,2.13,11.22-2.58
		c2.72,0.21,5.46,0.34,8.17,0.65c7.84,0.9,15.66,1.88,24.48,2.95c-1.3-6.7-3.08-10.3-9.76-9.23c-6.84,1.1-13.8,1.43-20.67,2.42
		c-0.82,0.12-1.36,2.24-2.03,3.44c-3.8-1.01-7.6-2.02-12.47-3.31c2.1-3.08,3.32-4.88,4.34-6.37c3.08,0.95,5.69,2.69,7.9,2.28
		c11.5-2.12,22.98-4.5,34.28-7.46c2.84-0.74,5.03-3.98,7.52-6.06C230.15,130.93,234.08,133.16,234.76,127.04z M156.64,327.97
		c0.73,1.75,1.52,5,2.19,4.98c2.59-0.09,5.21-1.09,7.64-2.14c0.31-0.14-0.21-3.7-0.6-3.75c-2.25-0.3-4.59-0.11-6.88,0.11
		c-0.91,0.09-1.76,0.7-2.64,1.07c-1.22-2.35-2.25-6.56-3.69-6.7c-3.71-0.37-7.59,1.06-11.41,1.76
		C151.81,331.28,151.81,331.28,156.64,327.97z M228.12,202.49c-0.12-0.34-0.25-0.68-0.37-1.02c-1.98,0.53-3.96,1.07-6.42,1.73
		c1.51-2.06,2.62-3.58,4.43-6.06c-4.81,2.44-8.04,4.82-11.64,5.78c-14.94,3.98-29.94,7.75-45.01,11.19
		c-13.04,2.97-26.71,3.01-38.77,10.22c-21.48,12.85-37.23,30.08-45.43,54.15c-1.69,4.97-6.33,9.2-10.38,12.94
		c-1.23,1.14-5.46,0.16-7.49-1.14c-1.11-0.71-1.34-4.64-0.4-6.16c0.79-1.29,3.87-1.76,5.86-1.6c6.84,0.55,8.56-4.37,9.3-9.17
		c0.92-5.94-4.1-5.25-7.36-4.42c-3.53,0.9-6.79,3.03-10.02,4.88c-9.28,5.31-13.03,18.82-7.62,27.02c6.31,9.54,16.53,10.5,26.82,2.95
		c12.03-8.83,16.83-22.65,21.85-35.21c8.65-21.68,24.97-32.58,45.58-38.43c18.15-5.15,36.95-8,55.2-12.87
		c9.87-2.64,19.17-7.38,28.73-11.18c-0.22-0.6-0.43-1.2-0.65-1.8c-4.24,1.21-8.47,2.43-12.71,3.64c-0.11-0.25-0.22-0.5-0.32-0.75
		C223.56,205.62,225.84,204.05,228.12,202.49z M223.33,270.36c-3.76,1.05-7.06,1.06-9.06,2.67c-12.13,9.81-26.45,7.97-40.46,8.51
		c-4.63,0.18-10.1,0.87-13.58,3.48c-5.19,3.89-8.94,9.69-12.17,13.38c2.01,2.68,4.33,5.76,6.65,8.84
		c6.72,8.88,12.41,10.27,22.79,6.98c4.5-1.42,9.9-2.35,14.28-1.19c5.73,1.51,9.95,0.19,14.53-2.6c9.31-5.67,18.73-11.15,29.13-17.31
		C232.07,286.78,227.87,278.88,223.33,270.36z M221.06,216.8c-5.67,2.52-9.71,5.16-14.11,6.13c-16.94,3.74-34.2,6.18-50.96,10.57
		c-17.68,4.64-34.85,11.03-42.64,30.18c-3.62,8.88-2.19,18.1,3.92,23.64c4.8,4.36,19.56,4.9,25.78,0.96
		c10.61-6.74,11.72-16.52,2.85-25.07c-6.24-6.01-13.08-4.63-16.22,1.97c1.94,3.4,3.39,5.94,4.83,8.48
		c-2.24,0.89-6.07,2.97-6.45,2.46c-2.07-2.74-3.9-6.01-4.53-9.34c-0.34-1.8,1.35-4.73,3-6.03c6.81-5.35,13.28-12.18,21.12-14.9
		c12.57-4.35,26.3-5.23,39.2-8.78c12.16-3.35,23.91-8.21,35.78-12.57c0.79-0.29,1.07-1.97,1.81-3.44c-2.15,0.37-3.47,0.59-5.02,0.85
		C219.93,220.29,220.29,219.17,221.06,216.8z M69.18,132c0.84,0.96,1.67,1.93,2.51,2.89c-6.71,3.36-13.54,6.5-20.05,10.22
		c-1.92,1.1-2.9,3.85-4.31,5.84c2.38-0.05,5.2,0.71,7.07-0.29c15.5-8.33,30.87-16.91,46.18-25.58c5.16-2.92,9.93-2.61,14.4,0.97
		c2.64,2.11,4.54,5.32,7.39,6.92c3.26,1.83,7.21,2.44,10.86,3.57c-0.13-3.64-0.27-7.29-0.36-10.93c-0.01-0.43,0.26-0.87,0.36-1.17
		c4.79-2.19,9.67-4,14.13-6.56c6.91-3.97,6.73,6.54,12.29,5.79c-0.48-1.97-0.86-3.57-1.37-5.65c8.03,5.87,9.02,8.6,3.01,15.17
		c-11.83,12.93-24.76,24.84-36.52,37.83c-5.04,5.57-9.63,7.06-16.19,3.85c-4.06-1.99-7.82-1.9-10.98,3.1
		c6.89,2.37,12.74,5.29,4.59,15.41c5.68-1.81,9.53-1.91,11.57-3.88c11.39-10.95,22.33-22.36,33.44-33.59
		c6.55-6.62,13.31-13.04,19.68-19.83c6.19-6.6,6.61-14.11,1.68-20.36c-4.94-6.26-12.25-7.54-20.18-3.85
		c-5.38,2.5-11.02,4.44-16.38,6.99c-5.09,2.43-9.7,2.65-14.7-0.45c-4.93-3.05-10.05-3.29-15.35,0.06
		c-5.68,3.59-11.89,6.33-17.63,9.83c-4.8,2.93-7.97,2.07-10.83-3.61c5.63-2.31,10.83-4.43,16.02-6.56
		c-8.43-3.97-15.09-2.81-19.12,4.19C68.92,124.96,69.53,128.76,69.18,132z M224.37,100.79c-0.15,0.85-0.31,1.69-0.46,2.54
		c5.08,1.06,10.41,1.46,15.17,3.34c6,2.37,17.25-0.77,14.57,12.22c-0.1,0.47,0.95,1.14,1.4,1.76c5.13,7.14,9.79,14.68,15.49,21.32
		c5.44,6.34,11.31,12.72,18.19,17.28c6.26,4.16,20.48-2,25.88-9.53c3.86-5.39,2.9-12.57-2.93-19.18c-3.99-4.52-9.04-6.42-14.45-2.8
		c-3.9,2.61-8.01,5.8-5.18,11.84c1.19-0.12,1.94-0.3,2.67-0.24c2.01,0.16,4.33-0.11,5.88,0.85c0.86,0.53,1.14,4.12,0.42,4.67
		c-1.63,1.24-4.72,2.62-6.02,1.87c-3.41-1.97-7.29-4.46-9.04-7.77c-11.92-22.47-32.97-34.44-53.28-47.32
		c-0.33-0.21-1.19,0.4-2.23,0.79c1.91,1.65,3.46,3,5.3,4.6c-3.79-0.6-6.99-1.11-10.19-1.61c-0.06,0.38-0.11,0.76-0.17,1.14
		c4.83,1.85,9.66,3.7,14.48,5.55c-0.14,0.43-0.29,0.87-0.43,1.3C234.41,102.52,229.39,101.66,224.37,100.79z M249.36,227
		c0.74,1.46,2.51,3.4,2.08,4.43c-1.16,2.79-2.81,6.69-5.09,7.35c-2.7,0.79-6.26-1.34-9.44-2.21c1-3.05,1.06-7.18,3.14-8.97
		c12.93-11.11,28.33-19.71,36.79-35.29c3.71-6.83,5.88-14.51,8.75-21.8c-0.97-0.34-1.95-0.69-2.92-1.03
		c-0.76,2.25-1.52,4.49-2.32,6.87c-0.63-2.34-1.22-4.57-1.82-6.8c-1.19,13.12-11.54,20.53-17.77,30.19
		c-1.66,2.58-5.15,4.71-8.21,5.52c-12.18,3.23-19.01,12.28-24.6,22.33c-3.7,6.65-5.63,14.16-0.73,21.38
		c4.53,6.67,17.85,10.07,24.64,6.48c8.38-4.44,14.37-17.12,11.83-25.01C261.31,223.04,256.14,221.71,249.36,227z M178.87,338.08
		c0.85-0.26,1.7-0.52,2.56-0.77c1.34-1.56,2.69-3.12,4.03-4.68c1.22,1.11,3.51,2.3,3.43,3.31c-0.15,2.03-1.54,3.99-2.55,5.91
		c-0.17,0.32-0.94,0.34-1.44,0.47c-4.74,1.19-9.48,2.37-14.22,3.55c-11.99,2.99-22.83,1.04-33.2-6.1
		c-17.55-12.09-25.74-29.03-27.72-49.63c-0.11-1.11-0.57-2.19-0.86-3.29c-0.31,0.04-0.62,0.09-0.93,0.13
		c-0.13,1.51-0.27,3.01-0.41,4.57c-1.19-1.8-2.2-3.35-3.21-4.89c-0.29,0.13-0.59,0.26-0.88,0.4c0.48,2.16,0.95,4.32,1.43,6.48
		c-0.24,0.09-0.48,0.19-0.72,0.28c-0.93-1.7-1.87-3.41-3.93-7.16c-0.61,5.9-1.96,10-1.26,13.72c3.91,20.9,16.83,35.85,33.64,47.55
		c15.56,10.83,32.37,14.45,50.39,5.58c9.24-4.55,14.99-15.69,11.38-24.36c-1.22-2.94-4.87-5.76-7.99-6.68
		c-1.96-0.58-6.47,1.97-7.21,4.05C177.98,329.98,178.87,334.19,178.87,338.08z M245.27,128.83c-0.69,0.43-1.38,0.87-2.07,1.3
		c1.64,2.76,3.2,5.57,4.95,8.26c8.05,12.4,10.64,25.94,6.45,40.01c-1.3,4.36-5.9,8-9.65,11.2c-1.06,0.9-4.85-0.36-6.61-1.68
		c-1.18-0.89-1.94-4.64-1.22-5.3c1.64-1.51,4.29-1.93,6.54-2.73c2.05-0.73,5.37-0.86,5.92-2.17c0.98-2.34,1.23-5.95,0.01-7.95
		c-0.91-1.51-4.71-2.11-7.02-1.77c-9.37,1.38-16.69,15.91-12.64,24.49c5.81,12.29,20.7,13.25,30.07,1.94
		c15.53-18.75,13.53-47.52-4.74-64.97c0.99,3.18,1.9,6.11,2.81,9.04c-0.36,0.12-0.73,0.25-1.09,0.37c-1.63-2.93-3.25-5.86-4.88-8.79
		c-0.33,0.16-0.65,0.33-0.98,0.49c0.92,3.36,1.84,6.73,2.76,10.09c-0.27,0.09-0.54,0.18-0.81,0.27
		C250.47,136.9,247.87,132.87,245.27,128.83z M87.44,314.17c-0.42,0.34-0.84,0.68-1.26,1.02c3.43,5.9,5.99,12.57,10.45,17.54
		c12.86,14.31,27.41,26.72,44.62,35.8c2.7,1.43,5.71,4.21,6.48,6.95c1.31,4.67-0.89,7.29-5.14,4.48c-0.91-3.84-2.06-7.32-4.24-9.94
		c-0.48-0.58-6.84,2.43-6.74,2.88c1,4.12,2,8.78,4.68,11.78c2.08,2.33,6.48,2.86,9.97,3.58c5.88,1.22,10.81-0.24,13.51-6.26
		c2.95-6.58,1.72-12.32-4.01-16.59c-3.27-2.43-7.02-4.33-10.77-5.98c-24.26-10.69-41.7-27.52-48.98-53.67
		c-0.41-1.46-0.94-2.89-1.41-4.33c-0.64,0.17-1.28,0.34-1.91,0.51c1.05,4.08,2.09,8.17,3.14,12.25c-0.3,0.07-0.59,0.13-0.89,0.2
		c-1.03-1.58-2.07-3.17-3.1-4.75c-0.31,0.15-0.62,0.31-0.94,0.46c0.37,2.16,0.74,4.32,1.17,6.86
		C90.17,315.82,88.8,314.99,87.44,314.17z M269.44,323.91c0.51,0.54,1.02,1.08,1.53,1.61c13.85-8.98,26.99-19.54,32.79-35.27
		c7.71-20.9,21.3-33.49,42.49-39.07c4.4-1.16,8.21-4.54,12.29-6.89c-0.21-0.68-0.42-1.37-0.63-2.05c-1.9-0.38-3.96-1.42-5.69-1.03
		c-12.31,2.78-24.74,5.24-36.77,8.98c-13.16,4.09-19.3,14.56-21.53,27.63c-2.72,15.95-7.32,30.95-20.71,41.63
		C271.72,320.64,270.69,322.41,269.44,323.91z M238.14,356.04c-0.1,0.97-0.2,1.93-0.3,2.9c2.67,1.5,5.2,3.4,8.05,4.4
		c5.89,2.07,12.96-1.34,16.47-7.18c3.11-5.17,1.41-9.86-2.05-13.47c-5.43-5.64-12.03-5.66-18.04-1.33c-4.16,3-8.33,6.06-12.82,8.5
		c-20,10.87-39.75,23.15-65.62,15.56c2.11,0.72,4.23,1.44,6.34,2.15c-0.48,0.47-0.97,0.94-1.45,1.42c-1.35-0.13-2.69-0.26-5.73-0.55
		c3.55,2.59,5.64,4.11,8.11,5.92c-2.38,0.31-4.06,0.53-5.73,0.75c-0.05,0.71-0.11,1.41-0.16,2.12c4.56,0.53,9.19,1.82,13.68,1.44
		c16.3-1.37,31.09-7.15,44.57-16.44c6.8-4.69,13.67-9.33,20.86-13.37c1.79-1,5.18-0.07,7.32,1c0.72,0.36,0.55,5.19-0.44,5.73
		c-2,1.1-4.84,0.77-7.35,0.83C241.96,356.45,240.05,356.17,238.14,356.04z M146.34,189.4c12.92-1.35,25.08-2.48,37.2-3.94
		c5.26-0.63,10.61-1.42,15.61-3.08c5.57-1.84,10.63-5.2,16.19-7.07c6.06-2.04,9.29-4.49,4.71-10.6c-4.29-0.44-8.37-0.96-12.47-1.28
		c-11.93-0.93-23.65-2.7-34.3,6.08c-7.38,6.08-16.39,10.17-24.54,15.34C147.67,185.53,147.36,187.38,146.34,189.4z M302.03,218.18
		c-0.52-0.19-1.05-0.39-1.57-0.58c-2.93,3.43-5.34,7.57-8.88,10.17c-17,12.46-21.26,23.91-16.29,43.87
		c1.16,4.66,1.25,9.82,0.7,14.63c-1.11,9.72-2.98,19.34-4.94,31.45c3.4-4.87,7.03-7.78,7.43-11.09c1.28-10.37,2-20.92,1.67-31.35
		c-0.26-8.37-0.94-16.46,3.45-24.95c0,16.48,0,31.89,0,47.3c0.85,0.16,1.7,0.33,2.56,0.49c1.78-8.36,5.52-16.86,4.93-25.05
		c-1.18-16.34,1.13-31.39,8.76-45.82C301.26,224.59,301.34,221.22,302.03,218.18z M162.99,106.95c0.67,0.23,1.35,0.47,2.02,0.7
		c20.46-15.54,40.92-31.09,61.38-46.63c-0.21-0.62-0.43-1.24-0.64-1.86c-7.94,1.34-16.17,1.78-23.75,4.25
		c-10.19,3.31-19.97,7.98-29.69,12.58c-1.59,0.75-3.07,4.34-2.69,6.22c1.55,7.7-0.33,14.22-4.97,20.3
		C163.73,103.72,163.53,105.46,162.99,106.95z M170.9,69.91c-6.69-7.44-14.21-11.05-23.79-7.53c-9.84,3.62-15.22,11.6-18.23,20.92
		c-1.89,5.84,0.28,11.55,6.08,14.6c3.83,2.02,8.15,3.12,12.28,4.53c6.52,2.24,11.79,0.7,15.24-5.49c3.74-6.71,3.8-13.43-1.02-19.61
		c-4.86-6.23-10.88-5.09-14.96,3.05c1.46,0,2.83-0.4,3.77,0.08c2.53,1.29,6.4,2.55,6.92,4.56c0.68,2.63-0.47,7.39-2.43,8.57
		c-1.85,1.11-6.37-0.45-8.68-2.2c-6.04-4.56-6.49-11.84-1.86-17.91c4.6-6.03,10.94-7.23,17.85-2.84
		C165.25,72.67,167.9,75.54,170.9,69.91z M171.53,362.64c-0.02,0.31-0.04,0.63-0.06,0.94c0.86,0.27,1.72,0.78,2.57,0.76
		c22.72-0.46,42.41-9.27,59.48-23.45c4.91-4.08,8.47-11.33,9.87-17.73c1.99-9.09-4.8-17.77-11.57-16.39
		c-3.1,0.63-5.8,4.26-8.12,7.01c-0.69,0.82,0.52,3.25,0.87,4.94c2.61-0.96,5.21-1.92,7.88-2.91c3.34,6.89,3.08,8.18-2.24,14.47
		c-14.06,16.63-35.35,19.93-53.17,29.78c1.84,0,3.95,0,6.06,0c0.03,0.56,0.05,1.11,0.08,1.67
		C179.3,362.03,175.42,362.34,171.53,362.64z M245.82,333.85c8.68,0.22,15.26-4.43,17.87-12.54c2.22-6.88,4.73-13.75,6.01-20.83
		c3-16.61,0.95-32.54-9.38-47.45c-2.09,3.17-4.54,6.95-3.79,9.91C262.94,288.06,255.12,310.98,245.82,333.85z M204.12,96.73
		c-16.78-0.88-20.6,0.12-20.66,4.65c-5.31,3.23-9.74,5.94-14.39,8.76c4.86,3.17,9.15,5.97,14.47,9.44
		c-5.1,2.42-10.51,3.38-5.09,9.51c3.26-2.64,6.34-5.14,9.27-7.52c-1.3-2.34-2.2-3.98-2.41-4.36c10.24-7.66,19.8-14.81,29.37-21.97
		c-0.15-0.64-0.3-1.28-0.45-1.92c-4.38-0.4-8.76-0.8-14.55-1.32c18.46-2.71,18.67-2.77,19.73-5.27c-15.36-4.5-22.68-2.28-27.22,8.7
		C196.27,95.87,200.19,96.3,204.12,96.73z M337.57,305.15c-10.64-9.3-32.99-6.57-42.37,6.31c5.26-2.18,9.55-3.96,13.83-5.73
		c0.17,0.31,0.34,0.63,0.51,0.94c-15.73,9.69-31.45,19.37-47.18,29.06c0.31,0.87,0.63,1.74,0.94,2.61c2.43-0.36,5.19-0.1,7.25-1.17
		c11.46-5.95,22.55-12.65,34.16-18.25C315.29,313.82,326.38,309.79,337.57,305.15z M66.28,133.94c-3.52-11.61-1.97-15.08,8.32-20.83
		c7.1-3.97,16.08-2.35,21.47,4.08c1.09-0.42,2.39-0.7,3.41-1.39c0.92-0.61,1.53-1.68,2.42-2.72c-6.64-2.44-7.53-3.93-6.57-10.24
		c1.94-12.77,9.13-18.75,22.46-17.51c6.29,0.58,8.34-1.64,8.16-7.36c-15.65-2.37-30.56,6.24-36.42,20.37
		c-1.15,2.78-3.51,5.6-6.07,7.14c-4.92,2.96-10.3,5.23-15.66,7.36c-3.2,1.27-6.67,2.01-10.1,2.5c-4.34,0.62-8.21,1.37-8.29,6.76
		C54.86,125.94,60.07,129.59,66.28,133.94z M102.56,156.91c-1.04,0.81-1.88,1.29-2.52,1.98c-9.46,10.19-18.78,20.52-28.4,30.56
		c-4.71,4.91-4.3,10.31-2.35,15.86c2.34,6.62,10.1,10.19,18.69,8.93c6.29-0.92,11.08-4.25,11.26-10.77c0.09-3.12-2.94-6.33-4.55-9.5
		c-1.47,2.23-3.63,4.28-4.26,6.73c-0.99,3.84-1.68,7.25-6.77,6.23c-5.03-1.01-6.84-4.47-5.94-9.13c0.52-2.72,1.51-5.72,3.25-7.77
		c5.51-6.49,11.08-13.03,17.38-18.71C102.92,167.2,104.78,163.2,102.56,156.91z M55.4,193.11c6.32-3.17,13.05-5.75,18.77-9.78
		c2.74-1.93,3.56-6.58,5.26-10c-2.86,1.7-6.16,2.94-8.49,5.19c-5.61,5.41-17.19,8.84-23.61,5.08c-3.27-1.91-5.34-6.37-7.08-10.08
		c-0.51-1.08,1.98-3.56,3.1-5.4c2.73,2.01,5.35,4.21,8.24,5.97c1.75,1.06,4.08,2.21,5.85,1.84c1.21-0.25,2.66-3.02,2.69-4.69
		c0.15-9.04-7.52-9.58-13.46-11.09c-5.02-1.27-9.63,0.22-11.83,6.01C30.1,178.65,39.8,191.19,55.4,193.11z M247.24,312
		c1-0.09,2.01-0.18,3.01-0.26c0.22-2.66,0.31-5.35,0.7-7.99c0.68-4.63-1.02-8.68,1.95-14.12c6.68-12.22-7.04-27.91-22.8-25.81
		C241.92,277.94,247.58,293.9,247.24,312z M243.24,112.92c-21.92-9.38-41.77-4.46-53.52,12.56
		C207.37,121.33,224.6,117.29,243.24,112.92z M64.93,157.55c4.97,2.65,8.92,4.89,12.98,6.9c8.88,4.4,13.01,2.84,17.18-6.12
		c-2.98-4.22-5.88-8.34-8.59-12.18C79.66,149.76,73.19,153.19,64.93,157.55z M171.74,62c3.06-13.7,5.94-26.57,8.82-39.45
		c-0.72-0.33-1.43-0.66-2.15-0.98c-6.28,10.78-12.57,21.55-19.15,32.83C163.89,57.22,167.54,59.44,171.74,62z M234.46,360.29
		c-3.25,2.19-6.11,4.32-9.16,6.13c-3.14,1.87-6.69,3.46-4.65,8.04c1.26,2.85,3.44,7.87,4.6,7.7c3.45-0.49,7.14-2.5,9.76-4.96
		C240.36,372.2,240.25,366.48,234.46,360.29z M121.16,360.83c-2.9,3.64-6.86,6.7-7.87,10.53c-0.73,2.8,2.43,6.62,3.86,9.99
		c3.14-1.37,6.97-2.05,9.22-4.31c2.2-2.21,2.79-6.02,4.34-9.72C127.92,365.43,124.79,363.3,121.16,360.83z M135.73,59.67
		c1.16,0.56,2.32,1.13,3.47,1.69c2.71-2.35,7.79-4.78,7.72-7.05c-0.28-9.03-2.16-18.01-3.44-27.01c-1.03-0.01-2.06-0.02-3.08-0.03
		C138.84,38.07,137.29,48.87,135.73,59.67z M80.19,348.44c2.67,2.53,4.87,5.81,7.93,7.26c6.45,3.04,10.26-1.7,12.77-6.55
		c0.97-1.86,0.14-5.76-1.32-7.56c-4-4.93-7.77-0.71-11.35,1.33C85.82,344.28,83.64,346.05,80.19,348.44z M63.57,315.02
		c1.76,13.26,9.28,15.3,21.24,6.16c-1.05-3.33-2.11-6.69-3.23-10.27C75.45,312.31,69.72,313.62,63.57,315.02z M94.1,138.14
		c-0.21,0.78-0.42,1.55-0.63,2.33c6.18,2.7,12.16,6.22,18.61,7.77c3.41,0.82,6.87-2.5,4.52-7.14c-1.71-3.37-3.99-6.45-6.15-9.87
		C104.71,133.65,99.41,135.89,94.1,138.14z M128.87,161.95c-4.66-2.76-8.39-5.58-12.58-7.17c-2.1-0.8-5.22,0.27-7.48,1.33
		c-0.54,0.25-0.03,4.14,0.9,5.86c2.24,4.16,5.01,8.04,8.09,12.84C121.83,170.14,125.23,166.18,128.87,161.95z M115.3,356.48
		c0.96,0.49,1.92,0.99,2.89,1.48c-3.54-2.82-7.09-5.63-10.9-8.67c-3.34,4.72-6.42,7.81-7.84,11.53c-0.91,2.38,0.65,5.69,1.1,8.59
		c2.76-0.79,6.31-0.79,8.09-2.57C111.48,364.02,113.14,360,115.3,356.48z M311.03,335.15c-4.67-5.68-12.25-7.11-19.53-3.64
		c-5.81,2.77-11.8,5.15-17.56,8.01c-1.84,0.91-3.19,2.81-4.3,3.83C283.67,340.57,297.12,337.91,311.03,335.15z M201.45,379.16
		c-6.86,1.26-11.49,1.64-15.74,3.14c-1.58,0.56-3.5,4.08-3.06,5.6c0.77,2.63,3.22,6.65,5.04,6.69c3.44,0.07,7.86-1.4,10.14-3.85
		C200.05,388.35,200.1,383.95,201.45,379.16z M63.24,135.61c-5.22-3.25-9.02-6.61-13.43-7.98c-2.78-0.86-6.69,0.85-9.65,2.31
		c-0.81,0.4-0.03,4.04,0.02,6.19c1.55-0.28,3.1-0.56,4.65-0.86c1.72-0.32,3.43-0.66,5.14-1c-0.39,1.78-0.74,3.58-1.2,5.34
		c-0.27,1.05-0.73,2.06-1.11,3.08c0.49,0.57,0.98,1.14,1.47,1.71C53.4,141.76,57.65,139.1,63.24,135.61z M198.19,245.83
		c0.62,1.44,1.24,2.89,1.86,4.33c5.45-1.35,11.04-2.33,16.27-4.28c1.47-0.55,3.17-4.87,2.49-5.84c-1.34-1.9-5.1-4.26-6.44-3.59
		C207.34,238.96,202.87,242.61,198.19,245.83z M92.72,332.66c-2.49-1.65-4.86-4.53-7.05-4.4c-6.63,0.39-12.15,3.38-14.98,10.03
		C79.7,343.13,82.81,342.41,92.72,332.66z M174.51,68.15c15.92-6.44,15.92-6.44,13.83-17.47c-3.4,0-6.87,0-9.77,0
		c-0.87,3.21-1.64,5.74-2.24,8.31C175.71,61.61,175.27,64.27,174.51,68.15z M110.42,214.38c10.7,11.87,11.89,12.08,19.74,3.82
		C125.13,208.86,120.75,207.91,110.42,214.38z M169.99,380.17c-4.05,4.78-6.93,8.18-9.8,11.57c2.41,1.53,4.75,4.17,7.26,4.35
		c5.44,0.38,9.84-2.53,9.84-8.36C177.29,385.74,173.6,383.75,169.99,380.17z M116.89,227.49c-3.1-2.22-5.87-3.69-7.97-5.82
		c-3.58-3.64-6.43-3.73-9.47,0.54c-3.2,4.5-1.01,7.01,2.89,9.27C108.21,234.88,112.61,233.03,116.89,227.49z M109.48,87.38
		c-3.76,5.17-6.78,8.52-8.63,12.42c-0.45,0.94,2.94,3.71,4.56,5.64c3.67-3.24,7.47-6.37,10.73-9.97
		C116.4,95.19,112.94,91.54,109.48,87.38z M292.11,191.79c-2.07,0.76-2.99,1.3-3.95,1.41c-6.1,0.71-8.02,4.16-5.83,9.59
		c1,2.47,3.14,4.48,4.77,6.7c2.12-3.69,4.58-7.25,6.2-11.15C293.93,196.85,292.68,194.56,292.11,191.79z M205.85,252.93
		c-4.27,3.25-8.72,6.3-12.68,9.89c-1.12,1.02-1.7,4.5-0.93,5.29c1.25,1.28,3.87,1.86,5.83,1.72
		C208.56,269.07,206.31,260.89,205.85,252.93z M104.48,236.81c-4.19-1.8-7.78-3.76-11.62-4.81c-1.68-0.46-5.31,0.56-5.55,1.53
		c-0.57,2.32-0.59,5.89,0.82,7.38C93.66,246.69,99.6,245.31,104.48,236.81z M188.61,241.1c-5.36,1.86-10.45,3.03-14.85,5.45
		c-1.8,0.99-2.91,4.72-2.81,7.15c0.06,1.5,3.08,4.14,4.61,4.03c2.47-0.18,5.65-1.61,7-3.57
		C184.99,250.64,186.29,246.34,188.61,241.1z M55.49,153.46c0.12,0.85,0.25,1.7,0.37,2.55c1.71,0,3.62,0.49,5.1-0.09
		c4.02-1.59,7.93-3.53,11.77-5.55c3.88-2.04,7.8-4.09,11.32-6.66c1.11-0.81,1.02-3.28,1.48-4.99c-1.54,0.22-3.2,0.15-4.58,0.74
		c-2.31,0.99-4.43,2.41-6.64,3.63C68.03,146.55,61.76,150,55.49,153.46z M207.44,201.57c4.64-2.8,8.82-4.99,12.55-7.78
		c1.1-0.82,1.8-3.98,1.12-4.96c-1.08-1.54-3.83-3.36-5.29-2.96C207.37,188.21,203.82,189.26,207.44,201.57z M80.15,242.03
		c-2.01,2.59-3.83,4.92-6.46,8.29c5.18,1.91,9.54,4.26,14.11,4.84c1.92,0.24,4.32-3.26,6.5-5.06c-1.48-1.39-2.76-3.15-4.49-4.08
		C86.99,244.51,83.87,243.53,80.15,242.03z M115.45,292.85c-0.48,9.97,2.75,17.34,9.24,20.47c1.08,0.52,4.19-0.69,4.64-1.81
		C130.61,308.36,120.04,294.15,115.45,292.85z M187.95,207.9c4.38-2.16,8.34-3.94,11.98-6.24c0.31-0.19-1.22-5.33-2.5-5.64
		c-4.2-1-8.67-0.83-13.89-1.17C185.28,199.99,186.24,202.84,187.95,207.9z M243.15,90.67c7.27,8.76,17.25,9.18,20.38,0.86
		C256.49,86.19,253.11,86.05,243.15,90.67z M163.26,274.51c3.53-3.72,6.61-6.37,8.68-9.66c0.42-0.66-3.02-3.74-4.68-5.71
		c-3.42,3.09-6.85,6.18-10.27,9.27C158.64,270.02,160.28,271.61,163.26,274.51z M150.77,200.11c-0.32,11.99,2.41,13.89,13.49,9.86
		C162.2,199.56,160.82,198.5,150.77,200.11z M203.82,377.82c2.36,4.43,4.31,8.11,6.27,11.78c1.89-1.06,5.18-1.87,5.41-3.22
		c0.72-4.09,0.26-8.39,0.26-13.95C210.78,374.68,208.06,375.9,203.82,377.82z M164.02,197.64c10.05,12.86,10.05,12.86,16.68,8.58
		C180.32,194.11,171.77,197.18,164.02,197.64z M120.65,73.5c0.86,0.2,1.72,0.4,2.58,0.6c3.06-2.8,6.13-5.6,9.79-8.95
		c-4.62-3.26-8.42-5.94-12.22-8.63c-0.67,0.35-1.33,0.7-2,1.06C119.42,62.89,120.04,68.2,120.65,73.5z M145.91,213.11
		c0.51-0.86,1.01-1.72,1.52-2.58c-2.81-2.4-5.32-5.46-8.56-6.93c-1.66-0.75-4.61,1.35-6.97,2.16c1.29,3.55,2.58,7.11,3.9,10.74
		C140.13,215.04,143.02,214.07,145.91,213.11z M247.3,149.39c-2.65-7.41-3.54-7.91-9.15-5.53c-9.26,3.93-10.67,5.96-7.91,11.34
		C235.78,153.31,241.31,151.43,247.3,149.39z M188.22,258.55c-4.52,2.84-11.97,1.84-11.94,9.59c0,1.22,3.39,3.5,5.2,3.48
		C191.22,271.51,186.7,263.52,188.22,258.55z M270.52,79.64c-7.37-1.24-14.74-2.48-22.91-3.85
		C251.7,84.34,260.24,86.16,270.52,79.64z M241.03,138.48c-6-8.92-11.03-0.76-15.85,0.84c-1.48,0.49-1.93,4.1-2.86,6.28
		c0.75,0.36,1.5,0.72,2.25,1.08C229.62,144.17,234.66,141.66,241.03,138.48z M249.36,154.99c-18.03,4.94-18.03,4.94-17.16,10.52
		c5.85-1.18,11.7-2.36,18.17-3.67C250.07,159.85,249.76,157.72,249.36,154.99z M138.38,253.54c5.58,3.71,10.38,6.9,15.66,10.41
		c0.83-1.18,1.91-2.71,1.65-2.34c-2.21-5.13-3.7-8.56-5.37-12.45C147.07,250.35,143.13,251.79,138.38,253.54z M314.83,195.14
		c1.79-8.66,2.17-15.76-3.07-22.7C306.59,181.67,307.26,187.52,314.83,195.14z M129.24,147.47c0.91,3.96,1.72,7.5,2.98,13.01
		c3.96-3.93,7.15-7.1,10.93-10.85C137.6,145.57,133.88,140.18,129.24,147.47z M229.72,84.48c0.35,1.08,0.71,2.16,1.06,3.23
		c4.88-1.41,9.76-2.82,14.64-4.23c-1.83-1.71-3.4-3.93-5.54-5.03C233.22,75.02,231.48,79.91,229.72,84.48z M277.5,202.95
		c-0.8-0.18-1.59-0.35-2.39-0.53c-0.52,4.26-1.42,8.52-1.39,12.77c0.01,1.85,1.64,4.02,3.14,5.34c0.52,0.46,3.61-0.8,4.26-1.97
		c0.93-1.68,1.37-4.21,0.82-6C280.91,209.21,279.02,206.13,277.5,202.95z M123.59,90.56c-3.09,11.3-9.46,17.36-19.04,20.25
		C118.54,111.9,129.03,101.56,123.59,90.56z M67.44,263.35c6.55,0.9,11.05,1.84,15.56,1.92c1.14,0.02,2.33-2.67,3.5-4.12
		c-4.42-1.6-8.76-3.75-13.32-4.47C71.87,256.47,69.91,260.36,67.44,263.35z M206.15,82.48c18.21,2.29,15.58,4.5,18.1-4.98
		C217.81,76.29,211.59,75.51,206.15,82.48z M147.42,315.63c-5.21-7.35-8.76-7.99-15.62-3.01
		C136.51,315.9,139.98,323.09,147.42,315.63z M286.19,93.41c-6.21-7.2-11.94-7.97-19.15-4.65
		C271.16,97.11,277.72,94.89,286.19,93.41z M258.75,101.04c-0.21,0.76-0.42,1.53-0.63,2.29c3.67,1.09,7.29,2.75,11.02,3.03
		c1.87,0.14,3.93-2.25,5.9-3.5c-2.04-1.49-4.04-4.15-6.12-4.21C265.56,98.55,262.15,100.15,258.75,101.04z M219.23,248.41
		c-3.49,4.22-6.3,7.61-9.12,11.01c0.58,0.88,1.17,1.77,1.75,2.65c4.5-1.18,8.99-2.36,14.97-3.93
		C223.69,254.11,221.9,251.82,219.23,248.41z M201.55,335.9c4.04-3.15,7-4.95,9.13-7.46c0.58-0.68-1.23-5-2.14-5.06
		c-3.2-0.24-6.48,0.64-10.57,1.22C199.21,328.5,200.02,331.07,201.55,335.9z M154,31.98c-1.28,0.02-2.57,0.03-3.85,0.05
		c-0.32,4.64-0.84,9.28-0.72,13.9c0.01,0.56,3.56,1.64,5.28,1.35c1.29-0.22,2.28-2.24,3.4-3.46c-1.35-1.11-2.7-2.22-2.45-2.02
		C154.96,37.66,154.48,34.82,154,31.98z M296.53,179.09c-3.72,4.91-2.71,9.68,2.96,13.97C304.98,187.59,304.76,186.57,296.53,179.09
		z M114.7,203.72c0.77,0.5,1.54,1.01,2.31,1.51c0-3,0.56-8.45-0.09-8.6c-4.32-0.99-8.91-0.84-13.41-1.07
		c-0.05,0.74-0.09,1.48-0.14,2.22C107.15,199.76,110.92,201.74,114.7,203.72z M307.37,194.66c-3.2,1.8-5.63,2.36-6.45,3.81
		c-1.32,2.37-1.88,5.3-2.13,8.06c-0.07,0.82,2.77,2.73,2.89,2.62c1.79-1.63,3.94-3.29,4.8-5.42
		C307.41,201.44,307.06,198.64,307.37,194.66z M278.88,100.99c3.1,1.82,4.67,3.26,6.47,3.68c2.86,0.65,5.88,0.61,8.83,0.87
		c0.02-1.37,0.51-3.69-0.01-3.95c-3.09-1.52-6.36-2.82-9.7-3.6C283.4,97.74,281.91,99.29,278.88,100.99z M126.63,294.78
		c3.26,11.37,3.26,11.37,9.5,10.79C136.19,294.49,135.2,293.36,126.63,294.78z M161.67,149.7c-2.16,2.55-3.52,4.16-4.88,5.77
		c2.74,1.94,5.32,4.19,8.31,5.6c0.81,0.38,2.83-1.82,4.29-2.83C167.08,155.69,164.78,153.14,161.67,149.7z M148.08,341.06
		c0.64-0.99,1.28-1.98,1.93-2.97c-3.14-6.15-9.13-7.22-15.11-8.31c-0.48,0.81-0.96,1.63-1.44,2.44
		C138.33,335.17,143.2,338.11,148.08,341.06z M249.53,71.45c0.04-1.03,0.08-2.06,0.12-3.1c-3-0.69-6.05-2.06-8.98-1.82
		c-1.92,0.15-3.65,2.63-5.46,4.07c1.92,0.94,3.84,2.62,5.78,2.64C243.83,73.27,246.68,72.1,249.53,71.45z M196.97,253.44
		c-0.73-5.34-1.27-9.33-2.08-15.26c-1.73,3.9-2.69,5.87-3.5,7.9c-1.02,2.57-1.92,5.18-2.87,7.78
		C191.36,253.73,194.19,253.58,196.97,253.44z M135.65,327.2c-0.79-10.82-6.87-9.81-13.55-7.55
		C126.62,322.17,131.13,324.69,135.65,327.2z M291.15,226.92c2.5-6.22,4.23-10.54,6.7-16.67C287,214.7,285.78,217.68,291.15,226.92z
		 M145.01,143.2c1.63,0.29,3.26,0.57,4.9,0.86c0.66-3.42,1.33-6.84,1.99-10.26c-1.95-0.37-3.9-0.73-5.85-1.1
		C145.7,136.2,145.36,139.7,145.01,143.2z M127,114.28c0.29,0.68,0.59,1.36,0.88,2.05c5.79-2.55,11.59-5.1,18.37-8.09
		C135.07,100.94,133.46,113.31,127,114.28z M166.42,244.11c-4.98,3.48-8.28,5.8-12.18,8.53
		C162.89,257.46,165.46,255.92,166.42,244.11z M270.84,110.59c0.01,1.22,0.01,2.43,0.02,3.65c3.86,0.3,7.72,0.6,11.57,0.89
		c0-1.89,0.01-3.78,0.01-5.67C278.58,109.84,274.71,110.22,270.84,110.59z M306.67,163.5c-7.94,4.59-8.1,8.15-1.5,16.69
		C305.72,174.14,306.12,169.69,306.67,163.5z M169.71,341.7c-5.05-6.64-12.21-6.1-16.23,0C158.64,341.7,163.38,341.7,169.71,341.7z
		 M117.12,114.24c8.93,0.51,16.39-6.6,14.02-12.6C126.65,105.67,122.01,109.85,117.12,114.24z M291.12,109.53
		c-0.85,0.37-1.7,0.74-2.54,1.1c0.41,2.18,0.1,5.4,1.4,6.32c2.23,1.57,5.47,1.7,8.29,2.44c0.33-0.86,0.67-1.71,1-2.57
		C296.56,114.4,293.84,111.96,291.12,109.53z M89.2,134.29c0.39,0.77,0.78,1.55,1.17,2.32c6.01-2.94,12.03-5.89,18.04-8.83
		c-0.49-0.97-0.99-1.93-1.48-2.9C101.02,128.02,95.11,131.16,89.2,134.29z M267.86,224.74c0.99-0.18,1.98-0.36,2.97-0.54
		c-0.64-4.01-1.28-8.02-2.09-13.13C261.57,216.87,263.91,220.86,267.86,224.74z M211.12,334.26c0.87,1.31,1.75,2.61,2.62,3.92
		c3.5-2.58,7-5.16,10.51-7.74c-0.67-1-1.33-2-2-3.01C218.54,329.71,214.83,331.99,211.12,334.26z M189.82,45.7
		c-0.04-0.78-0.09-1.55-0.13-2.33c-1.58-0.61-3.5-2.1-4.66-1.65c-2.02,0.79-3.58,2.78-5.33,4.27c1.33,0.93,2.8,2.78,3.95,2.59
		C185.8,48.25,187.77,46.73,189.82,45.7z"/>
	<path class="st1" d="M228.12,202.49c-2.28,1.57-4.56,3.13-6.84,4.7c0.11,0.25,0.22,0.5,0.32,0.75c4.24-1.21,8.47-2.43,12.71-3.64
		c0.22,0.6,0.43,1.2,0.65,1.8c-9.56,3.79-18.86,8.54-28.73,11.18c-18.24,4.87-37.04,7.72-55.2,12.87
		c-20.61,5.85-36.93,16.76-45.58,38.43c-5.01,12.56-9.82,26.38-21.85,35.21c-10.29,7.55-20.51,6.59-26.82-2.95
		c-5.42-8.19-1.66-21.71,7.62-27.02c3.23-1.85,6.49-3.97,10.02-4.88c3.26-0.83,8.28-1.52,7.36,4.42c-0.75,4.8-2.46,9.72-9.3,9.17
		c-1.99-0.16-5.07,0.31-5.86,1.6c-0.94,1.52-0.71,5.45,0.4,6.16c2.03,1.3,6.26,2.28,7.49,1.14c4.05-3.74,8.69-7.97,10.38-12.94
		c8.2-24.08,23.95-41.3,45.43-54.15c12.06-7.21,25.73-7.25,38.77-10.22c15.07-3.44,30.08-7.2,45.01-11.19
		c3.61-0.96,6.84-3.34,11.64-5.78c-1.81,2.48-2.92,4-4.43,6.06c2.46-0.66,4.44-1.2,6.42-1.73
		C227.87,201.81,227.99,202.15,228.12,202.49z"/>
	<path class="st1" d="M223.33,270.36c4.54,8.53,8.74,16.42,12.12,22.76c-10.39,6.16-19.82,11.64-29.13,17.31
		c-4.57,2.79-8.8,4.11-14.53,2.6c-4.38-1.16-9.78-0.23-14.28,1.19c-10.37,3.28-16.07,1.9-22.79-6.98c-2.33-3.08-4.64-6.16-6.65-8.84
		c3.23-3.69,6.98-9.49,12.17-13.38c3.47-2.61,8.95-3.3,13.58-3.48c14.01-0.54,28.33,1.3,40.46-8.51
		C216.27,271.41,219.57,271.4,223.33,270.36z"/>
	<path class="st1" d="M221.06,216.8c-0.76,2.37-1.13,3.5-1.65,5.11c1.55-0.26,2.87-0.49,5.02-0.85c-0.74,1.47-1.02,3.15-1.81,3.44
		c-11.87,4.36-23.62,9.22-35.78,12.57c-12.91,3.55-26.64,4.42-39.2,8.78c-7.84,2.71-14.31,9.55-21.12,14.9
		c-1.66,1.3-3.35,4.24-3,6.03c0.64,3.33,2.47,6.6,4.53,9.34c0.38,0.51,4.21-1.57,6.45-2.46c-1.45-2.54-2.9-5.08-4.83-8.48
		c3.14-6.6,9.98-7.98,16.22-1.97c8.88,8.55,7.77,18.33-2.85,25.07c-6.21,3.95-20.97,3.4-25.78-0.96
		c-6.11-5.54-7.54-14.76-3.92-23.64c7.8-19.15,24.96-25.54,42.64-30.18c16.75-4.4,34.02-6.83,50.96-10.57
		C211.35,221.95,215.39,219.32,221.06,216.8z"/>
	<path class="st1" d="M69.18,132c0.35-3.25-0.26-7.05,1.24-9.64c4.03-7,10.69-8.17,19.12-4.19c-5.19,2.13-10.39,4.25-16.02,6.56
		c2.86,5.67,6.03,6.54,10.83,3.61c5.74-3.5,11.95-6.24,17.63-9.83c5.3-3.35,10.42-3.11,15.35-0.06c4.99,3.09,9.6,2.88,14.7,0.45
		c5.35-2.56,11-4.49,16.38-6.99c7.93-3.69,15.24-2.41,20.18,3.85c4.94,6.25,4.51,13.76-1.68,20.36
		c-6.37,6.79-13.13,13.21-19.68,19.83c-11.12,11.23-22.06,22.64-33.44,33.59c-2.05,1.97-5.89,2.07-11.57,3.88
		c8.15-10.13,2.3-13.04-4.59-15.41c3.15-4.99,6.92-5.08,10.98-3.1c6.55,3.21,11.14,1.72,16.19-3.85
		c11.75-12.99,24.69-24.9,36.52-37.83c6.01-6.57,5.02-9.3-3.01-15.17c0.5,2.08,0.89,3.68,1.37,5.65c-5.57,0.75-5.38-9.77-12.29-5.79
		c-4.45,2.56-9.34,4.37-14.13,6.56c-0.1,0.29-0.37,0.74-0.36,1.17c0.09,3.64,0.24,7.29,0.36,10.93c-3.65-1.14-7.6-1.74-10.86-3.57
		c-2.85-1.61-4.76-4.81-7.39-6.92c-4.47-3.58-9.24-3.89-14.4-0.97c-15.31,8.67-30.68,17.25-46.18,25.58c-1.87,1-4.69,0.24-7.07,0.29
		c1.41-1.99,2.39-4.74,4.31-5.84c6.5-3.72,13.34-6.86,20.05-10.22C70.85,133.93,70.02,132.97,69.18,132z"/>
	<path class="st1" d="M224.37,100.79c5.02,0.87,10.05,1.74,15.07,2.6c0.14-0.43,0.29-0.87,0.43-1.3c-4.83-1.85-9.66-3.7-14.48-5.55
		c0.06-0.38,0.11-0.76,0.17-1.14c3.2,0.51,6.4,1.01,10.19,1.61c-1.85-1.6-3.4-2.94-5.3-4.6c1.04-0.39,1.9-1,2.23-0.79
		c20.31,12.88,41.36,24.85,53.28,47.32c1.76,3.31,5.63,5.8,9.04,7.77c1.3,0.75,4.39-0.62,6.02-1.87c0.72-0.55,0.44-4.14-0.42-4.67
		c-1.54-0.96-3.87-0.69-5.88-0.85c-0.73-0.06-1.48,0.12-2.67,0.24c-2.84-6.04,1.28-9.24,5.18-11.84c5.41-3.61,10.46-1.72,14.45,2.8
		c5.83,6.62,6.8,13.79,2.93,19.18c-5.4,7.54-19.62,13.69-25.88,9.53c-6.88-4.56-12.75-10.95-18.19-17.28
		c-5.7-6.65-10.36-14.18-15.49-21.32c-0.45-0.62-1.5-1.29-1.4-1.76c2.68-12.99-8.57-9.85-14.57-12.22
		c-4.75-1.88-10.09-2.28-15.17-3.34C224.06,102.48,224.21,101.63,224.37,100.79z"/>
	<path class="st1" d="M249.36,227c6.79-5.29,11.95-3.95,14.33,3.44c2.55,7.9-3.44,20.57-11.83,25.01c-6.78,3.59-20.1,0.2-24.64-6.48
		c-4.9-7.22-2.97-14.73,0.73-21.38c5.59-10.05,12.42-19.1,24.6-22.33c3.06-0.81,6.55-2.94,8.21-5.52
		c6.23-9.67,16.58-17.07,17.77-30.19c0.6,2.23,1.19,4.46,1.82,6.8c0.8-2.37,1.56-4.62,2.32-6.87c0.97,0.34,1.95,0.69,2.92,1.03
		c-2.87,7.29-5.04,14.96-8.75,21.8c-8.46,15.58-23.87,24.18-36.79,35.29c-2.08,1.79-2.14,5.92-3.14,8.97c3.18,0.87,6.74,3,9.44,2.21
		c2.27-0.66,3.93-4.56,5.09-7.35C251.86,230.4,250.09,228.46,249.36,227z"/>
	<path class="st1" d="M178.87,338.08c0-3.89-0.89-8.1,0.33-11.56c0.73-2.08,5.25-4.62,7.21-4.05c3.12,0.91,6.77,3.74,7.99,6.68
		c3.61,8.67-2.14,19.81-11.38,24.36c-18.02,8.87-34.83,5.26-50.39-5.58c-16.81-11.7-29.73-26.65-33.64-47.55
		c-0.7-3.72,0.65-7.83,1.26-13.72c2.06,3.76,2.99,5.46,3.93,7.16c0.24-0.09,0.48-0.19,0.72-0.28c-0.48-2.16-0.95-4.32-1.43-6.48
		c0.29-0.13,0.59-0.26,0.88-0.4c1.01,1.54,2.03,3.08,3.21,4.89c0.14-1.56,0.27-3.07,0.41-4.57c0.31-0.04,0.62-0.09,0.93-0.13
		c0.3,1.09,0.76,2.17,0.86,3.29c1.98,20.61,10.18,37.54,27.72,49.63c10.37,7.15,21.21,9.09,33.2,6.1c4.74-1.18,9.48-2.36,14.22-3.55
		c0.5-0.13,1.27-0.15,1.44-0.47c1-1.92,2.4-3.88,2.55-5.91c0.07-1.02-2.21-2.2-3.43-3.31c-1.34,1.56-2.69,3.12-4.03,4.68
		C180.57,337.56,179.72,337.82,178.87,338.08z"/>
	<path class="st1" d="M245.27,128.83c2.6,4.03,5.2,8.06,7.81,12.1c0.27-0.09,0.54-0.18,0.81-0.27c-0.92-3.36-1.84-6.73-2.76-10.09
		c0.33-0.16,0.65-0.33,0.98-0.49c1.63,2.93,3.25,5.86,4.88,8.79c0.36-0.12,0.73-0.25,1.09-0.37c-0.91-2.93-1.82-5.86-2.81-9.04
		c18.27,17.45,20.28,46.23,4.74,64.97c-9.37,11.31-24.26,10.34-30.07-1.94c-4.06-8.58,3.26-23.11,12.64-24.49
		c2.32-0.34,6.11,0.27,7.02,1.77c1.22,2,0.97,5.61-0.01,7.95c-0.55,1.32-3.87,1.45-5.92,2.17c-2.26,0.8-4.91,1.23-6.54,2.73
		c-0.72,0.66,0.04,4.41,1.22,5.3c1.76,1.32,5.55,2.58,6.61,1.68c3.75-3.2,8.35-6.84,9.65-11.2c4.19-14.07,1.59-27.61-6.45-40.01
		c-1.75-2.69-3.3-5.5-4.95-8.26C243.89,129.7,244.58,129.27,245.27,128.83z"/>
	<path class="st1" d="M87.44,314.17c1.36,0.83,2.73,1.65,4.63,2.8c-0.43-2.55-0.8-4.71-1.17-6.86c0.31-0.15,0.62-0.31,0.94-0.46
		c1.03,1.58,2.07,3.17,3.1,4.75c0.3-0.07,0.59-0.13,0.89-0.2c-1.05-4.08-2.09-8.17-3.14-12.25c0.64-0.17,1.28-0.34,1.91-0.51
		c0.47,1.44,1,2.87,1.41,4.33c7.28,26.15,24.72,42.99,48.98,53.67c3.75,1.65,7.5,3.55,10.77,5.98c5.73,4.27,6.96,10,4.01,16.59
		c-2.7,6.03-7.63,7.48-13.51,6.26c-3.49-0.72-7.9-1.26-9.97-3.58c-2.68-3.01-3.68-7.66-4.68-11.78c-0.11-0.44,6.25-3.46,6.74-2.88
		c2.18,2.61,3.33,6.1,4.24,9.94c4.25,2.81,6.45,0.19,5.14-4.48c-0.77-2.74-3.77-5.52-6.48-6.95c-17.21-9.08-31.76-21.49-44.62-35.8
		c-4.46-4.97-7.02-11.64-10.45-17.54C86.59,314.84,87.02,314.5,87.44,314.17z"/>
	<path class="st1" d="M269.44,323.91c1.25-1.5,2.28-3.27,3.78-4.46c13.39-10.67,17.99-25.67,20.71-41.63
		c2.23-13.08,8.37-23.54,21.53-27.63c12.03-3.74,24.46-6.21,36.77-8.98c1.73-0.39,3.78,0.65,5.69,1.03
		c0.21,0.68,0.42,1.37,0.63,2.05c-4.08,2.36-7.89,5.73-12.29,6.89c-21.19,5.58-34.78,18.17-42.49,39.07
		c-5.8,15.74-18.94,26.29-32.79,35.27C270.46,324.99,269.95,324.45,269.44,323.91z M314.67,258.31
		c-12.84,9.71-18.55,23.97-22.11,38.75C299.8,284.37,307.33,271.16,314.67,258.31z"/>
	<path class="st1" d="M238.14,356.04c1.91,0.13,3.82,0.41,5.72,0.37c2.5-0.06,5.34,0.27,7.35-0.83c0.99-0.54,1.16-5.37,0.44-5.73
		c-2.14-1.07-5.54-2.01-7.32-1c-7.19,4.04-14.05,8.68-20.86,13.37c-13.48,9.29-28.27,15.08-44.57,16.44
		c-4.49,0.38-9.12-0.91-13.68-1.44c0.05-0.71,0.11-1.41,0.16-2.12c1.68-0.22,3.36-0.44,5.73-0.75c-2.48-1.81-4.56-3.33-8.11-5.92
		c3.04,0.29,4.39,0.42,5.73,0.55c0.48-0.47,0.97-0.94,1.45-1.42c-2.11-0.72-4.23-1.44-6.34-2.15c25.86,7.6,45.62-4.68,65.62-15.56
		c4.49-2.44,8.66-5.5,12.82-8.5c6.01-4.33,12.61-4.32,18.04,1.33c3.46,3.6,5.16,8.3,2.05,13.47c-3.51,5.83-10.59,9.25-16.47,7.18
		c-2.85-1-5.38-2.91-8.05-4.4C237.95,357.97,238.04,357,238.14,356.04z"/>
	<path class="st1" d="M146.34,189.4c1.02-2.02,1.33-3.87,2.39-4.54c8.15-5.18,17.16-9.27,24.54-15.34
		c10.66-8.77,22.38-7.01,34.3-6.08c4.1,0.32,8.18,0.83,12.47,1.28c4.58,6.11,1.35,8.56-4.71,10.6c-5.56,1.87-10.62,5.23-16.19,7.07
		c-5,1.65-10.35,2.44-15.61,3.08C171.42,186.92,159.25,188.05,146.34,189.4z"/>
	<path class="st1" d="M302.03,218.18c-0.69,3.04-0.77,6.41-2.18,9.08c-7.63,14.43-9.94,29.48-8.76,45.82
		c0.59,8.19-3.15,16.69-4.93,25.05c-0.85-0.16-1.7-0.33-2.56-0.49c0-15.41,0-30.83,0-47.3c-4.39,8.48-3.71,16.58-3.45,24.95
		c0.33,10.44-0.39,20.98-1.67,31.35c-0.41,3.31-4.04,6.22-7.43,11.09c1.95-12.11,3.83-21.74,4.94-31.45
		c0.55-4.8,0.46-9.97-0.7-14.63c-4.97-19.96-0.71-31.41,16.29-43.87c3.54-2.6,5.95-6.74,8.88-10.17
		C300.98,217.79,301.51,217.98,302.03,218.18z"/>
	<path class="st1" d="M162.99,106.95c0.53-1.49,0.74-3.23,1.65-4.43c4.65-6.08,6.53-12.6,4.97-20.3c-0.38-1.89,1.1-5.47,2.69-6.22
		c9.72-4.59,19.5-9.26,29.69-12.58c7.58-2.46,15.81-2.9,23.75-4.25c0.21,0.62,0.43,1.24,0.64,1.86
		c-20.46,15.54-40.92,31.09-61.38,46.63C164.34,107.42,163.67,107.19,162.99,106.95z"/>
	<path class="st1" d="M170.9,69.91c-3,5.62-5.65,2.75-8.85,0.72c-6.9-4.39-13.25-3.18-17.85,2.84c-4.63,6.07-4.18,13.35,1.86,17.91
		c2.32,1.75,6.83,3.32,8.68,2.2c1.96-1.18,3.12-5.94,2.43-8.57c-0.52-2-4.38-3.27-6.92-4.56c-0.93-0.48-2.31-0.08-3.77-0.08
		c4.08-8.14,10.1-9.27,14.96-3.05c4.82,6.18,4.77,12.9,1.02,19.61c-3.45,6.19-8.72,7.72-15.24,5.49c-4.13-1.42-8.45-2.52-12.28-4.53
		c-5.8-3.05-7.97-8.76-6.08-14.6c3.01-9.33,8.39-17.31,18.23-20.92C156.69,58.86,164.21,62.47,170.9,69.91z"/>
	<path class="st1" d="M171.53,362.64c3.88-0.3,7.77-0.61,11.65-0.91c-0.03-0.56-0.05-1.11-0.08-1.67c-2.11,0-4.22,0-6.06,0
		c17.82-9.85,39.11-13.15,53.17-29.78c5.32-6.29,5.58-7.58,2.24-14.47c-2.67,0.99-5.28,1.95-7.88,2.91
		c-0.34-1.69-1.56-4.12-0.87-4.94c2.32-2.75,5.02-6.38,8.12-7.01c6.78-1.37,13.57,7.3,11.57,16.39c-1.4,6.4-4.96,13.65-9.87,17.73
		c-17.07,14.18-36.77,22.99-59.48,23.45c-0.85,0.02-1.71-0.49-2.57-0.76C171.5,363.27,171.52,362.96,171.53,362.64z"/>
	<path class="st1" d="M245.82,333.85c9.3-22.87,17.13-45.79,10.72-70.91c-0.75-2.96,1.69-6.73,3.79-9.91
		c10.33,14.91,12.38,30.84,9.38,47.45c-1.28,7.08-3.79,13.95-6.01,20.83C261.07,329.41,254.5,334.07,245.82,333.85z M252.23,328.08
		c12.08-12.27,17.86-34.12,12.04-47.81C266.73,299.15,259.62,313.64,252.23,328.08z"/>
	<path class="st1" d="M226.78,130.15c-2.49,2.09-4.68,5.32-7.52,6.06c-11.31,2.96-22.78,5.34-34.28,7.46
		c-2.21,0.41-4.82-1.33-7.9-2.28c-1.02,1.5-2.24,3.29-4.34,6.37c4.86,1.29,8.66,2.3,12.47,3.31l-0.16-0.2
		c-2.88,4.68-6.71,4.94-11.24,2.55c-3.51-1.85-7.11-3.53-9.78-4.85c9.64-21.38,29.85-17.95,47.6-22.26c0.96-6.48,6.13,0.54,9-0.81
		C222.67,127.05,224.72,128.6,226.78,130.15z"/>
	<path class="st1" d="M204.12,96.73c-3.93-0.43-7.86-0.86-11.91-1.3c4.54-10.97,11.86-13.2,27.22-8.7
		c-1.07,2.5-1.27,2.56-19.73,5.27c5.79,0.53,10.17,0.93,14.55,1.32c0.15,0.64,0.3,1.28,0.45,1.92
		c-9.57,7.16-19.13,14.31-29.37,21.97c0.21,0.38,1.12,2.02,2.41,4.36c-2.94,2.38-6.01,4.87-9.27,7.52
		c-5.42-6.13-0.02-7.09,5.09-9.51c-5.33-3.48-9.61-6.27-14.47-9.44c4.64-2.83,9.08-5.53,14.39-8.76
		C183.52,96.84,187.34,95.85,204.12,96.73z"/>
	<path class="st1" d="M337.57,305.15c-11.19,4.64-22.28,8.67-32.85,13.77c-11.62,5.6-22.7,12.31-34.16,18.25
		c-2.06,1.07-4.82,0.81-7.25,1.17c-0.31-0.87-0.63-1.74-0.94-2.61c15.73-9.69,31.45-19.37,47.18-29.06
		c-0.17-0.31-0.34-0.63-0.51-0.94c-4.28,1.77-8.57,3.55-13.83,5.73C304.58,298.58,326.92,295.85,337.57,305.15z"/>
	<path class="st1" d="M66.28,133.94c-6.21-4.35-11.41-8-16.85-11.82c0.07-5.4,3.95-6.14,8.29-6.76c3.42-0.49,6.9-1.23,10.1-2.5
		c5.36-2.13,10.74-4.4,15.66-7.36c2.56-1.54,4.92-4.36,6.07-7.14c5.86-14.13,20.76-22.75,36.42-20.37c0.18,5.71-1.87,7.94-8.16,7.36
		c-13.33-1.24-20.52,4.74-22.46,17.51c-0.96,6.31-0.07,7.8,6.57,10.24c-0.89,1.04-1.5,2.11-2.42,2.72
		c-1.03,0.69-2.33,0.97-3.41,1.39c-5.39-6.43-14.37-8.05-21.47-4.08C64.31,118.86,62.75,122.33,66.28,133.94z"/>
	<path class="st1" d="M102.56,156.91c2.22,6.3,0.36,10.3-4.2,14.4c-6.3,5.68-11.88,12.21-17.38,18.71
		c-1.74,2.05-2.73,5.05-3.25,7.77c-0.9,4.66,0.92,8.12,5.94,9.13c5.09,1.02,5.78-2.39,6.77-6.23c0.63-2.45,2.79-4.5,4.26-6.73
		c1.61,3.17,4.64,6.38,4.55,9.5c-0.18,6.52-4.97,9.85-11.26,10.77c-8.59,1.25-16.35-2.31-18.69-8.93
		c-1.96-5.55-2.36-10.95,2.35-15.86c9.62-10.04,18.93-20.37,28.4-30.56C100.67,158.2,101.52,157.71,102.56,156.91z"/>
	<path class="st1" d="M55.4,193.11c-15.59-1.93-25.3-14.46-20.56-26.94c2.2-5.79,6.81-7.28,11.83-6.01
		c5.95,1.51,13.62,2.05,13.46,11.09c-0.03,1.67-1.48,4.44-2.69,4.69c-1.77,0.36-4.1-0.78-5.85-1.84c-2.89-1.75-5.51-3.95-8.24-5.97
		c-1.12,1.84-3.61,4.32-3.1,5.4c1.75,3.71,3.81,8.16,7.08,10.08c6.42,3.76,18,0.33,23.61-5.08c2.33-2.25,5.63-3.49,8.49-5.19
		c-1.69,3.42-2.52,8.08-5.26,10C68.45,187.36,61.71,189.94,55.4,193.11z"/>
	<path class="st1" d="M247.24,312c0.34-18.09-5.32-34.06-17.14-48.18c15.76-2.1,29.48,13.59,22.8,25.81
		c-2.98,5.44-1.27,9.49-1.95,14.12c-0.39,2.64-0.47,5.32-0.7,7.99C249.25,311.82,248.24,311.91,247.24,312z"/>
	<path class="st1" d="M243.24,112.92c-18.63,4.37-35.87,8.42-53.52,12.56C201.47,108.46,221.31,103.53,243.24,112.92z"/>
	<path class="st1" d="M64.93,157.55c8.26-4.36,14.74-7.79,21.57-11.4c2.71,3.85,5.61,7.96,8.59,12.18
		c-4.17,8.96-8.3,10.52-17.18,6.12C73.85,162.44,69.9,160.2,64.93,157.55z"/>
	<path class="st1" d="M171.74,62c-4.19-2.56-7.84-4.78-12.47-7.6c6.58-11.28,12.86-22.06,19.15-32.83c0.72,0.33,1.43,0.66,2.15,0.98
		C177.68,35.42,174.8,48.3,171.74,62z"/>
	<path class="st1" d="M234.46,360.29c5.79,6.19,5.9,11.91,0.55,16.92c-2.62,2.46-6.31,4.47-9.76,4.96c-1.17,0.17-3.34-4.85-4.6-7.7
		c-2.03-4.58,1.52-6.17,4.65-8.04C228.35,364.61,231.21,362.49,234.46,360.29z"/>
	<path class="st1" d="M121.16,360.83c3.63,2.47,6.76,4.6,9.54,6.49c-1.54,3.7-2.14,7.51-4.34,9.72c-2.25,2.26-6.08,2.94-9.22,4.31
		c-1.43-3.37-4.59-7.19-3.86-9.99C114.29,367.52,118.26,364.47,121.16,360.83z"/>
	<path class="st1" d="M135.73,59.67c1.56-10.8,3.11-21.59,4.67-32.39c1.03,0.01,2.06,0.02,3.08,0.03c1.29,9,3.17,17.98,3.44,27.01
		c0.07,2.27-5.01,4.69-7.72,7.05C138.05,60.8,136.89,60.23,135.73,59.67z"/>
	<path class="st1" d="M80.19,348.44c3.45-2.39,5.63-4.16,8.04-5.53c3.58-2.04,7.35-6.25,11.35-1.33c1.46,1.8,2.28,5.7,1.32,7.56
		c-2.52,4.85-6.32,9.59-12.77,6.55C85.06,354.25,82.86,350.96,80.19,348.44z"/>
	<path class="st1" d="M63.57,315.02c6.14-1.4,11.87-2.71,18.01-4.11c1.13,3.58,2.18,6.94,3.23,10.27
		C72.85,330.32,65.34,328.28,63.57,315.02z"/>
	<path class="st1" d="M94.1,138.14c5.31-2.24,10.61-4.49,16.35-6.91c2.16,3.41,4.44,6.49,6.15,9.87c2.35,4.64-1.11,7.96-4.52,7.14
		c-6.45-1.55-12.43-5.07-18.61-7.77C93.68,139.69,93.89,138.91,94.1,138.14z"/>
	<path class="st1" d="M128.87,161.95c-3.64,4.24-7.05,8.19-11.07,12.86c-3.08-4.8-5.85-8.68-8.09-12.84
		c-0.93-1.73-1.44-5.61-0.9-5.86c2.26-1.06,5.38-2.13,7.48-1.33C120.49,156.37,124.21,159.19,128.87,161.95z"/>
	<path class="st1" d="M115.3,356.48c-2.16,3.52-3.82,7.54-6.66,10.37c-1.78,1.77-5.33,1.77-8.09,2.57c-0.45-2.89-2.01-6.21-1.1-8.59
		c1.42-3.72,4.5-6.81,7.84-11.53c3.82,3.03,7.36,5.85,10.9,8.67C117.22,357.47,116.26,356.98,115.3,356.48z"/>
	<path class="st1" d="M311.03,335.15c-13.91,2.76-27.36,5.42-41.4,8.2c1.11-1.02,2.46-2.92,4.3-3.83
		c5.76-2.86,11.75-5.25,17.56-8.01C298.79,328.04,306.36,329.47,311.03,335.15z"/>
	<path class="st1" d="M201.45,379.16c-1.36,4.79-1.4,9.2-3.62,11.58c-2.28,2.45-6.7,3.92-10.14,3.85c-1.82-0.04-4.27-4.06-5.04-6.69
		c-0.44-1.52,1.48-5.04,3.06-5.6C189.96,380.8,194.6,380.42,201.45,379.16z"/>
	<path class="st1" d="M63.24,135.61c-5.59,3.49-9.84,6.15-14.09,8.81c-0.49-0.57-0.98-1.14-1.47-1.71c0.37-1.03,0.83-2.03,1.11-3.08
		c0.46-1.76,0.81-3.56,1.2-5.34c-1.71,0.33-3.43,0.67-5.14,1c-1.55,0.29-3.1,0.57-4.65,0.86c-0.05-2.15-0.84-5.79-0.02-6.19
		c2.96-1.46,6.87-3.18,9.65-2.31C54.22,129,58.02,132.36,63.24,135.61z"/>
	<path class="st1" d="M185.2,151.07c0.67-1.2,1.2-3.32,2.03-3.44c6.86-0.99,13.83-1.32,20.67-2.42c6.68-1.08,8.46,2.53,9.76,9.23
		c-8.82-1.07-16.64-2.05-24.48-2.95c-2.71-0.31-5.44-0.44-8.15-0.64C185.04,150.87,185.2,151.07,185.2,151.07z"/>
	<path class="st1" d="M198.19,245.83c4.68-3.22,9.14-6.88,14.18-9.38c1.34-0.67,5.1,1.7,6.44,3.59c0.69,0.97-1.02,5.29-2.49,5.84
		c-5.23,1.95-10.82,2.93-16.27,4.28C199.44,248.72,198.81,247.28,198.19,245.83z"/>
	<path class="st1" d="M92.72,332.66c-9.92,9.75-13.02,10.46-22.04,5.62c2.83-6.64,8.35-9.64,14.98-10.03
		C87.86,328.13,90.23,331.02,92.72,332.66z"/>
	<path class="st1" d="M174.51,68.15c0.76-3.87,1.21-6.54,1.82-9.16c0.6-2.57,1.37-5.1,2.24-8.31c2.91,0,6.38,0,9.77,0
		C190.43,61.7,190.43,61.7,174.51,68.15z"/>
	<path class="st1" d="M110.42,214.38c10.33-6.47,14.71-5.52,19.74,3.82C122.31,226.46,121.11,226.25,110.42,214.38z"/>
	<path class="st1" d="M169.99,380.17c3.61,3.58,7.3,5.57,7.3,7.56c0,5.83-4.4,8.73-9.84,8.36c-2.51-0.17-4.84-2.82-7.26-4.35
		C163.06,388.34,165.94,384.95,169.99,380.17z"/>
	<path class="st1" d="M116.89,227.49c-4.28,5.54-8.68,7.39-14.54,3.99c-3.9-2.26-6.09-4.77-2.89-9.27c3.03-4.27,5.89-4.18,9.47-0.54
		C111.02,223.8,113.8,225.27,116.89,227.49z"/>
	<path class="st1" d="M109.48,87.38c3.46,4.16,6.92,7.81,6.66,8.09c-3.27,3.6-7.07,6.73-10.73,9.97c-1.62-1.93-5.01-4.69-4.56-5.64
		C102.7,95.9,105.72,92.55,109.48,87.38z"/>
	<path class="st1" d="M292.11,191.79c0.57,2.78,1.82,5.06,1.2,6.56c-1.63,3.9-4.08,7.45-6.2,11.15c-1.62-2.22-3.77-4.23-4.77-6.7
		c-2.2-5.43-0.28-8.88,5.83-9.59C289.13,193.08,290.04,192.54,292.11,191.79z"/>
	<path class="st1" d="M205.85,252.93c0.47,7.96,2.71,16.14-7.78,16.91c-1.97,0.14-4.58-0.44-5.83-1.72
		c-0.77-0.79-0.19-4.28,0.93-5.29C197.13,259.24,201.58,256.19,205.85,252.93z"/>
	<path class="st1" d="M104.48,236.81c-4.89,8.5-10.83,9.89-16.34,4.1c-1.42-1.49-1.39-5.06-0.82-7.38c0.24-0.97,3.86-1.99,5.55-1.53
		C96.7,233.05,100.29,235,104.48,236.81z"/>
	<path class="st1" d="M188.61,241.1c-2.33,5.24-3.62,9.54-6.05,13.06c-1.35,1.96-4.54,3.4-7,3.57c-1.53,0.11-4.55-2.53-4.61-4.03
		c-0.1-2.42,1.01-6.15,2.81-7.15C178.16,244.13,183.26,242.96,188.61,241.1z"/>
	<path class="st1" d="M55.49,153.46c6.27-3.46,12.55-6.91,18.82-10.37c2.21-1.22,4.33-2.64,6.64-3.63c1.38-0.59,3.05-0.52,4.58-0.74
		c-0.46,1.71-0.36,4.18-1.48,4.99c-3.53,2.56-7.44,4.62-11.32,6.66c-3.84,2.02-7.74,3.95-11.77,5.55c-1.48,0.59-3.39,0.09-5.1,0.09
		C55.73,155.16,55.61,154.31,55.49,153.46z"/>
	<path class="st1" d="M207.44,201.57c-3.62-12.31-0.07-13.36,8.37-15.7c1.46-0.4,4.21,1.41,5.29,2.96c0.69,0.99-0.02,4.14-1.12,4.96
		C216.27,196.59,212.09,198.77,207.44,201.57z"/>
	<path class="st1" d="M80.15,242.03c3.72,1.5,6.84,2.47,9.67,3.99c1.73,0.93,3.01,2.69,4.49,4.08c-2.18,1.8-4.58,5.31-6.5,5.06
		c-4.58-0.58-8.93-2.93-14.11-4.84C76.32,246.95,78.14,244.62,80.15,242.03z"/>
	<path class="st1" d="M115.45,292.85c4.59,1.29,15.16,15.51,13.88,18.66c-0.45,1.11-3.56,2.33-4.64,1.81
		C118.21,310.19,114.97,302.82,115.45,292.85z"/>
	<path class="st1" d="M187.95,207.9c-1.71-5.06-2.68-7.91-4.41-13.04c5.22,0.33,9.69,0.16,13.89,1.17c1.28,0.31,2.81,5.45,2.5,5.64
		C196.3,203.97,192.33,205.74,187.95,207.9z"/>
	<path class="st1" d="M243.15,90.67c9.96-4.62,13.34-4.48,20.38,0.86C260.4,99.84,250.42,99.42,243.15,90.67z"/>
	<path class="st1" d="M163.26,274.51c-2.98-2.9-4.62-4.5-6.27-6.09c3.42-3.09,6.85-6.18,10.27-9.27c1.66,1.97,5.09,5.05,4.68,5.71
		C169.88,268.14,166.79,270.79,163.26,274.51z"/>
	<path class="st1" d="M150.77,200.11c10.05-1.61,11.43-0.55,13.49,9.86C153.18,214,150.45,212.09,150.77,200.11z"/>
	<path class="st1" d="M203.82,377.82c4.25-1.92,6.97-3.15,11.94-5.39c0,5.57,0.46,9.86-0.26,13.95c-0.24,1.35-3.52,2.16-5.41,3.22
		C208.13,385.93,206.17,382.25,203.82,377.82z"/>
	<path class="st1" d="M164.02,197.64c7.75-0.46,16.3-3.53,16.68,8.58C174.07,210.5,174.07,210.5,164.02,197.64z"/>
	<path class="st1" d="M120.65,73.5c-0.61-5.31-1.23-10.61-1.84-15.92c0.67-0.35,1.33-0.7,2-1.06c3.8,2.68,7.6,5.37,12.22,8.63
		c-3.66,3.35-6.73,6.15-9.79,8.95C122.37,73.91,121.51,73.71,120.65,73.5z"/>
	<path class="st1" d="M145.91,213.11c-2.89,0.97-5.78,1.93-10.11,3.38c-1.32-3.63-2.61-7.18-3.9-10.74
		c2.37-0.81,5.31-2.91,6.97-2.16c3.24,1.47,5.75,4.53,8.56,6.93C146.92,211.39,146.42,212.25,145.91,213.11z"/>
	<path class="st1" d="M247.3,149.39c-5.99,2.04-11.53,3.92-17.06,5.81c-2.76-5.38-1.34-7.41,7.91-11.34
		C243.76,141.48,244.65,141.97,247.3,149.39z"/>
	<path class="st1" d="M188.22,258.55c-1.53,4.97,2.99,12.96-6.75,13.07c-1.8,0.02-5.19-2.25-5.2-3.48
		C176.25,260.4,183.71,261.39,188.22,258.55z"/>
	<path class="st1" d="M270.52,79.64c-10.28,6.52-18.82,4.69-22.91-3.85C255.78,77.16,263.15,78.4,270.52,79.64z"/>
	<path class="st1" d="M241.03,138.48c-6.38,3.17-11.42,5.68-16.46,8.19c-0.75-0.36-1.5-0.72-2.25-1.08
		c0.92-2.18,1.37-5.79,2.86-6.28C230.01,137.72,235.03,129.56,241.03,138.48z"/>
	<path class="st1" d="M249.36,154.99c0.4,2.73,0.71,4.85,1,6.85c-6.47,1.31-12.32,2.49-18.17,3.66
		C231.33,159.93,231.33,159.93,249.36,154.99z"/>
	<path class="st1" d="M138.38,253.54c4.75-1.74,8.68-3.19,11.94-4.38c1.68,3.88,3.16,7.32,5.37,12.45c0.26-0.37-0.82,1.16-1.65,2.34
		C148.76,260.43,143.96,257.24,138.38,253.54z"/>
	<path class="st1" d="M314.83,195.14c-7.58-7.61-8.25-13.46-3.07-22.7C317,179.37,316.63,186.47,314.83,195.14z"/>
	<path class="st1" d="M129.24,147.47c4.65-7.3,8.36-1.9,13.91,2.16c-3.78,3.75-6.98,6.92-10.93,10.85
		C130.96,154.98,130.15,151.44,129.24,147.47z"/>
	<path class="st1" d="M229.72,84.48c1.76-4.57,3.5-9.47,10.16-6.03c2.14,1.11,3.71,3.32,5.54,5.03c-4.88,1.41-9.76,2.82-14.64,4.23
		C230.43,86.64,230.07,85.56,229.72,84.48z"/>
	<path class="st1" d="M277.5,202.95c1.53,3.19,3.42,6.27,4.44,9.61c0.55,1.8,0.11,4.32-0.82,6c-0.65,1.17-3.74,2.43-4.26,1.97
		c-1.51-1.33-3.13-3.49-3.14-5.34c-0.03-4.25,0.87-8.51,1.39-12.77C275.9,202.59,276.7,202.77,277.5,202.95z"/>
	<path class="st1" d="M123.59,90.56c5.44,10.99-5.05,21.34-19.04,20.25C114.14,107.92,120.51,101.86,123.59,90.56z"/>
	<path class="st1" d="M67.44,263.35c2.47-2.99,4.43-6.88,5.74-6.67c4.56,0.73,8.9,2.87,13.32,4.47c-1.17,1.45-2.36,4.14-3.5,4.12
		C78.48,265.19,73.99,264.25,67.44,263.35z"/>
	<path class="st1" d="M156.64,327.97c-4.83,3.31-4.83,3.31-15.38-4.66c3.81-0.71,7.7-2.13,11.41-1.76c1.44,0.14,2.47,4.35,3.69,6.7
		L156.64,327.97z"/>
	<path class="st1" d="M206.15,82.48c5.44-6.97,11.66-6.19,18.1-4.98C221.73,86.98,224.36,84.77,206.15,82.48z"/>
	<path class="st1" d="M147.42,315.63c-7.44,7.45-10.91,0.27-15.62-3.01C138.66,307.64,142.21,308.29,147.42,315.63z"/>
	<path class="st1" d="M286.19,93.41c-8.47,1.48-15.03,3.7-19.15-4.65C274.24,85.44,279.98,86.21,286.19,93.41z"/>
	<path class="st1" d="M258.75,101.04c3.39-0.88,6.81-2.49,10.17-2.39c2.08,0.06,4.08,2.72,6.12,4.21c-1.97,1.25-4.03,3.63-5.9,3.5
		c-3.73-0.28-7.35-1.94-11.02-3.03C258.33,102.56,258.54,101.8,258.75,101.04z"/>
	<path class="st1" d="M219.23,248.41c2.67,3.41,4.46,5.7,7.6,9.72c-5.98,1.57-10.48,2.75-14.97,3.93c-0.58-0.88-1.17-1.77-1.75-2.65
		C212.93,256.03,215.74,252.63,219.23,248.41z"/>
	<path class="st1" d="M201.55,335.9c-1.53-4.83-2.34-7.4-3.57-11.3c4.09-0.58,7.37-1.46,10.57-1.22c0.91,0.07,2.72,4.38,2.14,5.06
		C208.55,330.95,205.59,332.75,201.55,335.9z"/>
	<path class="st1" d="M154,31.98c0.48,2.84,0.96,5.69,1.66,9.81c-0.24-0.2,1.11,0.91,2.45,2.02c-1.12,1.22-2.11,3.25-3.4,3.46
		c-1.72,0.29-5.27-0.79-5.28-1.35c-0.12-4.62,0.39-9.27,0.72-13.9C151.43,32.01,152.71,31.99,154,31.98z"/>
	<path class="st1" d="M235,127.26c-2.13-1.92-4.26-3.84-7.06-6.36c6.8-1.61,12.81-3.03,18.83-4.45c0.46,0.67,0.92,1.35,1.37,2.02
		c-4.46,2.85-8.92,5.71-13.39,8.56C234.75,127.03,235,127.26,235,127.26z"/>
	<path class="st1" d="M296.53,179.09c8.24,7.48,8.45,8.5,2.96,13.97C293.82,188.77,292.81,184,296.53,179.09z"/>
	<path class="st1" d="M114.7,203.72c-3.78-1.98-7.55-3.96-11.33-5.93c0.05-0.74,0.09-1.48,0.14-2.22c4.5,0.22,9.08,0.08,13.41,1.07
		c0.65,0.15,0.09,5.6,0.09,8.6C116.24,204.72,115.47,204.22,114.7,203.72z"/>
	<path class="st1" d="M307.37,194.66c-0.31,3.98,0.04,6.78-0.88,9.07c-0.86,2.13-3.01,3.78-4.8,5.42c-0.12,0.11-2.97-1.8-2.89-2.62
		c0.25-2.75,0.8-5.69,2.13-8.06C301.74,197.02,304.17,196.46,307.37,194.66z"/>
	<path class="st1" d="M278.88,100.99c3.03-1.7,4.52-3.26,5.58-3.01c3.34,0.78,6.61,2.08,9.7,3.6c0.52,0.26,0.04,2.58,0.01,3.95
		c-2.95-0.25-5.97-0.21-8.83-0.87C283.55,104.26,281.98,102.81,278.88,100.99z"/>
	<path class="st1" d="M126.63,294.78c8.57-1.43,9.56-0.3,9.5,10.79C129.89,306.15,129.89,306.15,126.63,294.78z"/>
	<path class="st1" d="M161.67,149.7c3.11,3.43,5.41,5.98,7.72,8.53c-1.46,1.01-3.48,3.21-4.29,2.83c-2.99-1.4-5.57-3.66-8.31-5.6
		C158.15,153.86,159.51,152.25,161.67,149.7z"/>
	<path class="st1" d="M148.08,341.06c-4.87-2.94-9.75-5.89-14.62-8.83c0.48-0.81,0.96-1.63,1.44-2.44
		c5.98,1.09,11.97,2.15,15.11,8.31C149.36,339.08,148.72,340.07,148.08,341.06z"/>
	<path class="st1" d="M249.53,71.45c-2.85,0.66-5.7,1.82-8.54,1.79c-1.93-0.02-3.85-1.7-5.78-2.64c1.81-1.44,3.54-3.91,5.46-4.07
		c2.92-0.24,5.98,1.13,8.98,1.82C249.61,69.38,249.57,70.41,249.53,71.45z"/>
	<path class="st1" d="M196.97,253.44c-2.78,0.14-5.61,0.28-8.44,0.43c0.95-2.6,1.85-5.21,2.87-7.78c0.81-2.03,1.76-4.01,3.5-7.9
		C195.7,244.11,196.24,248.1,196.97,253.44z"/>
	<path class="st1" d="M135.65,327.2c-4.52-2.52-9.04-5.03-13.55-7.55C128.78,317.39,134.86,316.39,135.65,327.2z"/>
	<path class="st1" d="M291.15,226.92c-5.37-9.24-4.15-12.22,6.7-16.67C295.39,216.37,293.65,220.7,291.15,226.92z"/>
	<path class="st1" d="M145.01,143.2c0.34-3.5,0.69-7,1.03-10.5c1.95,0.37,3.9,0.73,5.85,1.1c-0.66,3.42-1.33,6.84-1.99,10.26
		C148.28,143.78,146.64,143.49,145.01,143.2z"/>
	<path class="st1" d="M127,114.28c6.47-0.97,8.07-13.34,19.25-6.04c-6.78,2.99-12.58,5.54-18.37,8.09
		C127.58,115.64,127.29,114.96,127,114.28z"/>
	<path class="st1" d="M166.42,244.11c-0.96,11.81-3.53,13.35-12.18,8.53C158.14,249.91,161.44,247.6,166.42,244.11z"/>
	<path class="st1" d="M270.84,110.59c3.87-0.38,7.74-0.75,11.61-1.13c0,1.89-0.01,3.78-0.01,5.67c-3.86-0.3-7.72-0.6-11.57-0.89
		C270.86,113.02,270.85,111.81,270.84,110.59z"/>
	<path class="st1" d="M306.67,163.5c-0.55,6.18-0.95,10.64-1.5,16.69C298.57,171.65,298.74,168.09,306.67,163.5z"/>
	<path class="st1" d="M169.71,341.7c-6.33,0-11.08,0-16.23,0C157.51,335.59,164.66,335.06,169.71,341.7z"/>
	<path class="st1" d="M226.78,130.15c-2.05-1.55-4.11-3.1-6.16-4.65c-1.08-6.05,3.2-3.15,5.02-2.59c3.25,1,6.25,2.85,9.36,4.35
		c0.01,0-0.24-0.23-0.24-0.23C234.08,133.16,230.15,130.93,226.78,130.15z"/>
	<path class="st1" d="M117.12,114.24c4.89-4.4,9.54-8.57,14.02-12.6C133.51,107.64,126.04,114.75,117.12,114.24z"/>
	<path class="st1" d="M291.12,109.53c2.72,2.43,5.43,4.87,8.15,7.3c-0.33,0.86-0.67,1.71-1,2.57c-2.82-0.74-6.06-0.87-8.29-2.44
		c-1.31-0.92-0.99-4.14-1.4-6.32C289.43,110.27,290.27,109.9,291.12,109.53z"/>
	<path class="st1" d="M89.2,134.29c5.91-3.14,11.82-6.27,17.73-9.41c0.49,0.97,0.99,1.93,1.48,2.9c-6.01,2.94-12.03,5.89-18.04,8.83
		C89.98,135.84,89.59,135.07,89.2,134.29z"/>
	<path class="st1" d="M267.86,224.74c-3.95-3.88-6.29-7.87,0.89-13.67c0.81,5.11,1.45,9.12,2.09,13.13
		C269.84,224.38,268.85,224.56,267.86,224.74z"/>
	<path class="st1" d="M211.12,334.26c3.71-2.28,7.42-4.55,11.13-6.83c0.67,1,1.33,2,2,3.01c-3.5,2.58-7,5.16-10.51,7.74
		C212.87,336.87,212,335.57,211.12,334.26z"/>
	<path class="st1" d="M156.35,328.24c0.88-0.37,1.74-0.98,2.64-1.07c2.29-0.22,4.62-0.41,6.88-0.11c0.39,0.05,0.92,3.61,0.6,3.75
		c-2.44,1.05-5.05,2.05-7.64,2.14c-0.67,0.02-1.45-3.23-2.19-4.98C156.64,327.97,156.35,328.24,156.35,328.24z"/>
	<path class="st1" d="M189.82,45.7c-2.05,1.03-4.01,2.55-6.17,2.89c-1.15,0.18-2.63-1.66-3.95-2.59c1.75-1.49,3.31-3.48,5.33-4.27
		c1.16-0.45,3.08,1.03,4.66,1.65C189.73,44.15,189.77,44.92,189.82,45.7z"/>
	<path class="st1" d="M314.67,258.31c-7.33,12.85-14.87,26.06-22.11,38.75C296.12,282.28,301.82,268.02,314.67,258.31z"/>
	<path class="st1" d="M252.23,328.08c7.39-14.44,14.5-28.93,12.04-47.81C270.09,293.96,264.3,315.81,252.23,328.08z"/>
</g>
</svg>
